<svg width="139" height="157" viewBox="0 0 139 157" fill="none" xmlns="http://www.w3.org/2000/svg">
<path d="M66.8769 154.365H68.2702V145.185H66.8642L64.4467 146.903V148.251L66.8451 146.597H66.8769V154.365ZM74.8738 154.365H76.2416V152.539H77.5076V151.343H76.2416V145.185H74.1803C72.1191 148.175 71.0694 149.823 70.2805 151.299V152.539H74.8738V154.365ZM71.6038 151.324C72.3354 150.02 73.2706 148.569 74.8611 146.292H74.8865V151.362H71.6038V151.324ZM81.9354 154.537C84.143 154.537 85.4408 152.686 85.4408 149.759C85.4408 146.852 84.1303 145.013 81.9354 145.013C79.7406 145.013 78.4173 146.858 78.4173 149.766C78.4173 152.692 79.7215 154.537 81.9354 154.537ZM81.9354 153.341C80.6058 153.341 79.8615 151.986 79.8615 149.766C79.8615 147.577 80.6249 146.209 81.9354 146.209C83.246 146.209 84.003 147.571 84.003 149.766C84.003 151.992 83.2587 153.341 81.9354 153.341ZM91.8281 151.903L93.304 154.365H94.8181L92.6488 150.981L94.8436 147.672H93.3295L91.8853 150.096H91.8599L90.3967 147.672H88.8571L91.0328 151.025L88.8253 154.365H90.314L91.7963 151.903H91.8281ZM100.709 154.365H102.102V145.185H100.696L98.279 146.903V148.251L100.677 146.597H100.709V154.365ZM108.706 154.365H110.074V152.539H111.34V151.343H110.074V145.185H108.013C105.951 148.175 104.902 149.823 104.113 151.299V152.539H108.706V154.365ZM105.436 151.324C106.168 150.02 107.103 148.569 108.693 146.292H108.719V151.362H105.436V151.324ZM115.768 154.537C117.975 154.537 119.273 152.686 119.273 149.759C119.273 146.852 117.963 145.013 115.768 145.013C113.573 145.013 112.25 146.858 112.25 149.766C112.25 152.692 113.554 154.537 115.768 154.537ZM115.768 153.341C114.438 153.341 113.694 151.986 113.694 149.766C113.694 147.577 114.457 146.209 115.768 146.209C117.078 146.209 117.835 147.571 117.835 149.766C117.835 151.992 117.091 153.341 115.768 153.341Z" fill="white"/>
<rect y="45.6017" width="91.2033" height="91.2033" fill="white"/>
<circle cx="45.6017" cy="45.6017" r="45.6017" fill="#C4C4C4"/>
<circle cx="91.2033" cy="91.2033" r="45.6017" fill="#C4C4C4"/>
<rect x="0.651452" y="46.6515" width="91.2033" height="89.9004" stroke="#2F80ED" stroke-opacity="0.5" stroke-width="1.3029"/>
<rect x="46.2531" y="46.2531" width="91.2033" height="89.9004" stroke="#2F80ED" stroke-width="1.3029"/>
</svg>
