<svg width="174" height="144" viewBox="0 0 174 144" fill="none" xmlns="http://www.w3.org/2000/svg">
<path fill-rule="evenodd" clip-rule="evenodd" d="M78.2911 14.1837C96.0996 -3.62487 124.973 -3.62487 142.782 14.1837C160.59 31.9922 160.59 60.8656 142.782 78.6742L78.291 143.165L13.8006 78.6742C-4.00799 60.8656 -4.00799 31.9922 13.8006 14.1837C31.6091 -3.62487 60.4825 -3.62487 78.2911 14.1837ZM138.982 107.307L137.997 108.292L132.504 102.8L132.482 102.822L131.956 105.688L131.002 104.734L131.497 101.81L132.491 100.816L138.982 107.307ZM144.619 101.671L143.652 102.638L142.361 101.347L139.113 104.595L138.236 103.717C137.75 102.116 137.327 100.209 136.67 96.6368L138.128 95.1793L142.482 99.5338L143.377 98.6386L144.223 99.4844L143.328 100.38L144.619 101.671ZM137.934 96.9382C138.42 99.6733 138.784 101.36 139.189 102.8L139.216 102.827L141.537 100.506L137.952 96.9202L137.934 96.9382ZM147.867 91.9089C149.936 93.9782 150.327 96.205 148.766 97.7659C147.201 99.3314 144.974 98.949 142.905 96.8797C140.849 94.8239 140.48 92.5837 142.032 91.0317C143.584 89.4797 145.811 89.8531 147.867 91.9089ZM143.926 95.8586C145.496 97.4286 146.981 97.8604 147.921 96.9202C148.856 95.9845 148.429 94.5045 146.855 92.93C145.303 91.3781 143.805 90.9507 142.878 91.8774C141.951 92.8041 142.379 94.3111 143.926 95.8586ZM156.684 89.6057L153.899 88.9084L153.877 88.9309L154.57 91.72L153.517 92.7726L152.716 88.8499L148.807 88.0177L149.896 86.929L152.644 87.6083L152.662 87.5903L151.969 84.8552L153.04 83.7846L153.827 87.6758L157.754 88.535L156.684 89.6057ZM162.905 83.3842L161.92 84.3694L156.427 78.8767L156.405 78.8992L155.879 81.7648L154.925 80.8111L155.42 77.8871L156.414 76.8929L162.905 83.3842ZM168.542 77.7476L167.575 78.7148L166.284 77.4237L163.036 80.6716L162.159 79.7944C161.673 78.193 161.25 76.2856 160.593 72.7138L162.051 71.2563L166.405 75.6108L167.3 74.7156L168.146 75.5613L167.251 76.4565L168.542 77.7476ZM161.857 73.0152C162.343 75.7503 162.707 77.4372 163.112 78.8767L163.139 78.9037L165.46 76.5825L161.875 72.9972L161.857 73.0152ZM171.79 67.9859C173.859 70.0552 174.25 72.2819 172.689 73.8429C171.124 75.4084 168.897 75.026 166.828 72.9567C164.772 70.9009 164.403 68.6606 165.955 67.1087C167.507 65.5567 169.734 65.9301 171.79 67.9859ZM167.849 71.9356C169.419 73.5055 170.904 73.9374 171.844 72.9972C172.779 72.0615 172.352 70.5815 170.778 69.007C169.226 67.4551 167.728 67.0277 166.801 67.9544C165.874 68.8811 166.302 70.3881 167.849 71.9356Z" fill="#006DFF"/>
</svg>
