<svg width="209" height="209" viewBox="0 0 209 209" fill="none" xmlns="http://www.w3.org/2000/svg">
<path d="M156.997 159.292L157.982 158.307L151.491 151.816L150.497 152.81L150.002 155.734L150.956 156.688L151.482 153.822L151.504 153.8L156.997 159.292ZM162.652 153.638L163.619 152.671L162.328 151.38L163.223 150.484L162.377 149.639L161.482 150.534L157.128 146.179L155.67 147.637C156.327 151.209 156.75 153.116 157.235 154.717L158.113 155.595L161.361 152.347L162.652 153.638ZM158.189 153.8C157.784 152.36 157.42 150.673 156.934 147.938L156.952 147.92L160.537 151.506L158.216 153.827L158.189 153.8ZM167.766 148.766C169.327 147.205 168.936 144.978 166.867 142.909C164.811 140.853 162.584 140.48 161.032 142.032C159.48 143.584 159.849 145.824 161.905 147.88C163.974 149.949 166.201 150.331 167.766 148.766ZM166.921 147.92C165.981 148.86 164.496 148.429 162.926 146.859C161.379 145.311 160.951 143.804 161.878 142.877C162.805 141.951 164.303 142.378 165.855 143.93C167.429 145.505 167.856 146.985 166.921 147.92ZM172.899 139.908L175.684 140.606L176.754 139.535L172.827 138.676L172.04 134.785L170.969 135.855L171.662 138.59L171.644 138.608L168.896 137.929L167.807 139.018L171.716 139.85L172.517 143.773L173.57 142.72L172.877 139.931L172.899 139.908ZM180.92 135.369L181.905 134.384L175.414 127.893L174.42 128.887L173.925 131.811L174.879 132.765L175.405 129.899L175.427 129.877L180.92 135.369ZM186.575 129.715L187.542 128.748L186.251 127.457L187.146 126.561L186.3 125.716L185.405 126.611L181.051 122.256L179.593 123.714C180.25 127.286 180.673 129.193 181.158 130.794L182.036 131.672L185.284 128.424L186.575 129.715ZM182.112 129.877C181.707 128.437 181.343 126.75 180.857 124.015L180.875 123.997L184.46 127.583L182.139 129.904L182.112 129.877ZM191.689 124.843C193.25 123.282 192.859 121.055 190.79 118.986C188.734 116.93 186.507 116.557 184.955 118.109C183.403 119.661 183.772 121.901 185.828 123.957C187.897 126.026 190.124 126.408 191.689 124.843ZM190.844 123.997C189.904 124.937 188.419 124.506 186.849 122.936C185.302 121.388 184.874 119.881 185.801 118.954C186.728 118.028 188.226 118.455 189.778 120.007C191.352 121.582 191.779 123.062 190.844 123.997Z" fill="white"/>
<rect x="32.8005" y="129.674" width="91.2033" height="91.2033" transform="rotate(-45 32.8005 129.674)" fill="white"/>
<rect x="1.2624" y="97.429" width="136" height="136" transform="rotate(-45 1.2624 97.429)" stroke="#2F80ED"/>
<circle cx="65.0458" cy="97.429" r="45.6017" transform="rotate(-45 65.0458 97.429)" fill="#C4C4C4"/>
<circle cx="65.0458" cy="97.429" r="45.2759" transform="rotate(-45 65.0458 97.429)" stroke="black" stroke-width="0.651452"/>
<circle cx="129.536" cy="97.429" r="45.6017" transform="rotate(-45 129.536 97.429)" fill="#C4C4C4"/>
<circle cx="129.536" cy="97.429" r="45.2759" transform="rotate(-45 129.536 97.429)" stroke="#2F80ED" stroke-width="0.651452"/>
<rect x="33.2612" y="129.674" width="90.5519" height="90.5519" transform="rotate(-45 33.2612 129.674)" stroke="#2F80ED" stroke-width="0.651452"/>
</svg>
