<svg width="111" height="141" viewBox="0 0 111 141" fill="none" xmlns="http://www.w3.org/2000/svg">
<rect width="111" height="113.379" fill="white"/>
<path d="M24.3076 136.307H26.0032V125.134H24.2921L21.3498 127.225V128.866L24.2689 126.853H24.3076V136.307ZM34.0402 136.307H35.7049V134.085H37.2457V132.629H35.7049V125.134H33.1963C30.6876 128.773 29.41 130.779 28.4499 132.575V134.085H34.0402V136.307ZM30.0604 132.606C30.9509 131.019 32.089 129.253 34.0247 126.482H34.0557V132.653H30.0604V132.606ZM42.6347 136.516C45.3214 136.516 46.9009 134.263 46.9009 130.701C46.9009 127.163 45.3059 124.925 42.6347 124.925C39.9634 124.925 38.3529 127.171 38.3529 130.709C38.3529 134.271 39.9402 136.516 42.6347 136.516ZM42.6347 135.061C41.0164 135.061 40.1105 133.411 40.1105 130.709C40.1105 128.046 41.0397 126.381 42.6347 126.381C44.2297 126.381 45.1511 128.038 45.1511 130.709C45.1511 133.419 44.2451 135.061 42.6347 135.061ZM54.6746 133.311L56.4709 136.307H58.3137L55.6734 132.188L58.3447 128.162H56.5019L54.7443 131.112H54.7133L52.9325 128.162H51.0588L53.7068 132.242L51.0201 136.307H52.8319L54.6359 133.311H54.6746ZM65.4835 136.307H67.1792V125.134H65.468L62.5258 127.225V128.866L65.4448 126.853H65.4835V136.307ZM75.2161 136.307H76.8808V134.085H78.4216V132.629H76.8808V125.134H74.3722C71.8635 128.773 70.586 130.779 69.6259 132.575V134.085H75.2161V136.307ZM71.2364 132.606C72.1268 131.019 73.265 129.253 75.2006 126.482H75.2316V132.653H71.2364V132.606ZM83.8106 136.516C86.4973 136.516 88.0768 134.263 88.0768 130.701C88.0768 127.163 86.4818 124.925 83.8106 124.925C81.1393 124.925 79.5288 127.171 79.5288 130.709C79.5288 134.271 81.1161 136.516 83.8106 136.516ZM83.8106 135.061C82.1923 135.061 81.2864 133.411 81.2864 130.709C81.2864 128.046 82.2156 126.381 83.8106 126.381C85.4056 126.381 86.327 128.038 86.327 130.709C86.327 133.419 85.4211 135.061 83.8106 135.061Z" fill="white"/>
</svg>
